<?xml version="1.0" encoding="iso-8859-1"?>
<!-- Generator: Adobe Illustrator 19.0.0, SVG Export Plug-In . SVG Version: 6.00 Build 0)  -->
<svg xmlns="http://www.w3.org/2000/svg" xmlns:xlink="http://www.w3.org/1999/xlink" version="1.1" id="Layer_1" x="0px" y="0px" viewBox="0 0 512 512" style="enable-background:new 0 0 512 512;" xml:space="preserve" width="512px" height="512px">
<g>
	<g>
		<path d="M500.504,86.395h-50.481V10.199C450.023,4.567,445.457,0,439.824,0H11.497C5.864,0,1.298,4.567,1.298,10.199v169.139    c0,5.632,4.566,10.199,10.199,10.199h428.326c5.633,0,10.199-4.567,10.199-10.199v-72.545h40.282v124.835l-266.423,47.183    c-4.871,0.863-8.42,5.096-8.42,10.043v43.341h-17.787c-5.633,0-10.199,4.567-10.199,10.199v131.419    c0,21.056,17.131,38.186,38.186,38.186c21.056,0,38.187-17.131,38.187-38.186V342.395c0-5.632-4.566-10.199-10.199-10.199h-17.788    v-34.789l266.423-47.182c4.871-0.863,8.42-5.096,8.42-10.043V96.595C510.703,90.963,506.136,86.395,500.504,86.395z     M21.696,169.14v-30.708h309.667c5.633,0,10.199-4.567,10.199-10.199s-4.566-10.199-10.199-10.199H21.696V20.398h407.927V169.14    H21.696z M243.448,352.595v121.22c0,9.808-7.98,17.787-17.788,17.787c-9.809,0-17.787-7.98-17.787-17.787v-121.22H243.448z" fill="#60c17d"/>
	</g>
</g>
<g>
	<g>
		<path d="M381.255,118.033h-8.518c-5.633,0-10.199,4.567-10.199,10.199s4.566,10.199,10.199,10.199h8.518    c5.633,0,10.199-4.567,10.199-10.199S386.888,118.033,381.255,118.033z" fill="#60c17d"/>
	</g>
</g>
<g>
</g>
<g>
</g>
<g>
</g>
<g>
</g>
<g>
</g>
<g>
</g>
<g>
</g>
<g>
</g>
<g>
</g>
<g>
</g>
<g>
</g>
<g>
</g>
<g>
</g>
<g>
</g>
<g>
</g>
</svg>
